<?xml version="1.0" encoding="UTF-8"?>
<svg version="1.1" xmlns="http://www.w3.org/2000/svg" width="120" height="120">
<path d="M0 0 C3.22465619 2.57792849 3.7356836 5.09850594 4.5625 9.0625 C4.80613281 10.22394531 5.04976562 11.38539062 5.30078125 12.58203125 C5.64689453 14.27392578 5.64689453 14.27392578 6 16 C6.33064453 17.36705078 6.33064453 17.36705078 6.66796875 18.76171875 C8.01735968 24.53059137 7.94428628 29.14542507 7 35 C8.98 34.505 8.98 34.505 11 34 C9.125 38.875 9.125 38.875 8 40 C13.52135831 41.00388333 18.81795786 41.05007864 24.42578125 40.9375 C27 41 27 41 29 42 C29 43.65 29 45.3 29 47 C25.81309767 47.33921452 22.62539896 47.67029417 19.4375 48 C18.54224609 48.09539062 17.64699219 48.19078125 16.72460938 48.2890625 C11.78509212 48.79567965 6.96511986 49.10897382 2 49 C2 50.32 2 51.64 2 53 C2.639375 53.309375 3.27875 53.61875 3.9375 53.9375 C6 55 6 55 7 56 C7.09823937 57.66429051 7.12973631 59.33281931 7.125 61 C7.12886719 62.36125 7.12886719 62.36125 7.1328125 63.75 C7 66 7 66 6 67 C4.33382885 67.04063832 2.66611905 67.042721 1 67 C0.01 64.69 -0.98 62.38 -2 60 C-2.721875 60.12375 -3.44375 60.2475 -4.1875 60.375 C-7 60 -7 60 -9.8125 57.375 C-12.18467957 54.26151432 -12.46712496 51.9238497 -12 48 C-13.423125 48.1546875 -13.423125 48.1546875 -14.875 48.3125 C-20.21879796 48.3451505 -24.4452909 45.5176784 -29 43 C-30.33015668 42.32701751 -31.66238951 41.65804286 -33 41 C-31.29374499 38.21611025 -30.52373261 37.14615794 -27.3125 36.25 C-26.549375 36.1675 -25.78625 36.085 -25 36 C-25 36.99 -25 37.98 -25 39 C-24.01 39 -23.02 39 -22 39 C-22.88464221 32.35354343 -23.72004794 28.24639285 -28 23 C-29.19972821 18.66498206 -29.47772292 15.20687895 -27.8125 11 C-25.85571743 8.84079164 -24.86005251 8.2958675 -22 8 C-22 8.66 -22 9.32 -22 10 C-22.515625 10.391875 -23.03125 10.78375 -23.5625 11.1875 C-25.37753578 13.06456101 -25.37753578 13.06456101 -24.8125 16.4375 C-24.13988594 19.38665394 -23.39643127 21.38528301 -22 24 C-21.01 23.13375 -20.02 22.2675 -19 21.375 C-16.4365211 19.14229257 -13.83822501 17.23758516 -11 15.375 C-5.65855292 11.49410485 -2.97896396 5.75312415 0 0 Z " fill="#E0EEC4" transform="translate(62,26)"/>
<path d="M0 0 C0.99 0 1.98 0 3 0 C3 0.66 3 1.32 3 2 C2.484375 2.391875 1.96875 2.78375 1.4375 3.1875 C-0.37753578 5.06456101 -0.37753578 5.06456101 0.1875 8.4375 C0.86011406 11.38665394 1.60356873 13.38528301 3 16 C3.47050781 15.566875 3.94101562 15.13375 4.42578125 14.6875 C5.04839844 14.130625 5.67101563 13.57375 6.3125 13 C6.92738281 12.443125 7.54226562 11.88625 8.17578125 11.3125 C10 10 10 10 13 10 C12.48308594 10.45890625 11.96617188 10.9178125 11.43359375 11.390625 C10.44552734 12.31101562 10.44552734 12.31101562 9.4375 13.25 C8.77621094 13.85328125 8.11492188 14.4565625 7.43359375 15.078125 C6.96050781 15.71234375 6.48742188 16.3465625 6 17 C6.25276066 19.09465696 6.25276066 19.09465696 7 21 C6.814375 21.7425 6.62875 22.485 6.4375 23.25 C5.8066368 27.21542586 6.89231046 30.15566573 8 34 C9.32 34.33 10.64 34.66 12 35 C12 35.66 12 36.32 12 37 C13.65 37.33 15.3 37.66 17 38 C15.515 38.495 15.515 38.495 14 39 C14 40.98 14 42.96 14 45 C14.66 45 15.32 45 16 45 C16 45.66 16 46.32 16 47 C16.66 47 17.32 47 18 47 C18 47.66 18 48.32 18 49 C20.64 48.67 23.28 48.34 26 48 C25.73606499 44.56769552 25.73606499 44.56769552 25 41 C24.01 40.34 23.02 39.68 22 39 C27.94 39 33.88 39 40 39 C40 39.33 40 39.66 40 40 C33.565 40.495 33.565 40.495 27 41 C27 42.32 27 43.64 27 45 C27.639375 45.309375 28.27875 45.61875 28.9375 45.9375 C31 47 31 47 32 48 C32.09823937 49.66429051 32.12973631 51.33281931 32.125 53 C32.12886719 54.36125 32.12886719 54.36125 32.1328125 55.75 C32 58 32 58 31 59 C29.33382885 59.04063832 27.66611905 59.042721 26 59 C25.01 56.69 24.02 54.38 23 52 C22.278125 52.12375 21.55625 52.2475 20.8125 52.375 C18 52 18 52 15.1875 49.375 C12.81532043 46.26151432 12.53287504 43.9238497 13 40 C11.576875 40.1546875 11.576875 40.1546875 10.125 40.3125 C4.78120204 40.3451505 0.5547091 37.5176784 -4 35 C-5.33015668 34.32701751 -6.66238951 33.65804286 -8 33 C-6.29374499 30.21611025 -5.52373261 29.14615794 -2.3125 28.25 C-1.549375 28.1675 -0.78625 28.085 0 28 C0 28.99 0 29.98 0 31 C0.99 31 1.98 31 3 31 C2.11535779 24.35354343 1.27995206 20.24639285 -3 15 C-4.22070965 10.58916912 -4.5490042 7.19782734 -2.625 3 C-1 1 -1 1 0 0 Z " fill="#414B44" transform="translate(37,34)"/>
<path d="M0 0 C1.32 0.33 2.64 0.66 4 1 C4 2.65 4 4.3 4 6 C-5.57 6.33 -15.14 6.66 -25 7 C-24.67 7.33 -24.34 7.66 -24 8 C-23.95907063 10.33297433 -23.95758277 12.66705225 -24 15 C-26.70879335 16.35439668 -29.00933268 16.06501451 -32 16 C-32 15.34 -32 14.68 -32 14 C-32.66 14 -33.32 14 -34 14 C-34 13.34 -34 12.68 -34 12 C-34.66 12 -35.32 12 -36 12 C-36.125 9.125 -36.125 9.125 -36 6 C-31.37754919 1.37754919 -22.2172257 0.81117903 -15.875 0.75 C-10.56783483 0.9245778 -5.27861351 1.43801833 0 2 C0 1.34 0 0.68 0 0 Z " fill="#BEC9A9" transform="translate(87,67)"/>
<path d="M0 0 C0 0.66 0 1.32 0 2 C0.66 2 1.32 2 2 2 C2 3.32 2 4.64 2 6 C3.32 5.67 4.64 5.34 6 5 C4.125 9.875 4.125 9.875 3 11 C8.61 11.66 14.22 12.32 20 13 C20 13.33 20 13.66 20 14 C19.38479492 13.99476318 18.76958984 13.98952637 18.13574219 13.98413086 C15.34050524 13.96330629 12.54528464 13.95032241 9.75 13.9375 C8.78191406 13.92912109 7.81382813 13.92074219 6.81640625 13.91210938 C5.88183594 13.90888672 4.94726562 13.90566406 3.984375 13.90234375 C2.69611816 13.89448853 2.69611816 13.89448853 1.38183594 13.88647461 C-0.8917731 13.99484158 -2.80344835 14.44913252 -5 15 C-7.75 14.5625 -7.75 14.5625 -10 14 C-10.4560284 8.29964499 -9.60412752 5.45215753 -6 1 C-4 0 -4 0 0 0 Z " fill="#4F656A" transform="translate(67,55)"/>
<path d="M0 0 C3.22465619 2.57792849 3.7356836 5.09850594 4.5625 9.0625 C4.80742188 10.21878906 5.05234375 11.37507813 5.3046875 12.56640625 C5.53414062 13.69949219 5.76359375 14.83257812 6 16 C6.20882812 16.95777344 6.41765625 17.91554688 6.6328125 18.90234375 C7.5149577 23.03351667 8.09705746 26.75933547 8 31 C5.69767174 27.1961533 5.12159579 23.06197163 4.375 18.75 C4.2409375 18.00492188 4.106875 17.25984375 3.96875 16.4921875 C3.64033324 14.662437 3.3194202 12.83134246 3 11 C2.83918945 11.52956299 2.67837891 12.05912598 2.51269531 12.60473633 C1.77280871 15.01200647 1.01169975 17.4120472 0.25 19.8125 C-0.00265625 20.64587891 -0.2553125 21.47925781 -0.515625 22.33789062 C-2.94941737 29.91306939 -2.94941737 29.91306939 -7 32 C-8 30 -8 30 -7.00390625 26.91796875 C-6.04593355 24.43866271 -5.08760243 21.95949512 -4.12890625 19.48046875 C-3.11747703 16.36218696 -2.74779478 14.22945711 -3 11 C-3.99 11.99 -4.98 12.98 -6 14 C-6.66 13.67 -7.32 13.34 -8 13 C-7.67386719 12.48050781 -7.34773438 11.96101563 -7.01171875 11.42578125 C-4.63823632 7.63801135 -2.28224716 3.84378469 0 0 Z " fill="#6D885A" transform="translate(62,26)"/>
<path d="M0 0 C5.94 0 11.88 0 18 0 C18 0.33 18 0.66 18 1 C11.565 1.495 11.565 1.495 5 2 C5 3.32 5 4.64 5 6 C5.639375 6.309375 6.27875 6.61875 6.9375 6.9375 C9 8 9 8 10 9 C10.09823937 10.66429051 10.12973631 12.33281931 10.125 14 C10.12886719 15.36125 10.12886719 15.36125 10.1328125 16.75 C10 19 10 19 9 20 C7.33382885 20.04063832 5.66611905 20.042721 4 20 C3.01 17.69 2.02 15.38 1 13 C0.236875 13.0825 -0.52625 13.165 -1.3125 13.25 C-4 13 -4 13 -5.875 11.1875 C-6.24625 10.465625 -6.6175 9.74375 -7 9 C-6.67 8.01 -6.34 7.02 -6 6 C-6 6.66 -6 7.32 -6 8 C-5.34 8 -4.68 8 -4 8 C-4 8.66 -4 9.32 -4 10 C-1.36 9.67 1.28 9.34 4 9 C3.73606499 5.56769552 3.73606499 5.56769552 3 2 C2.01 1.34 1.02 0.68 0 0 Z " fill="#3D4A35" transform="translate(59,73)"/>
<path d="M0 0 C-0.66 0 -1.32 0 -2 0 C-2 0.66 -2 1.32 -2 2 C-1.01 2.66 -0.02 3.32 1 4 C1.1875 7.625 1.1875 7.625 1 11 C-1.70879335 12.35439668 -4.00933268 12.06501451 -7 12 C-7 11.34 -7 10.68 -7 10 C-7.66 10 -8.32 10 -9 10 C-9 9.34 -9 8.68 -9 8 C-9.66 8 -10.32 8 -11 8 C-11.125 5.125 -11.125 5.125 -11 2 C-7.75267347 -1.24732653 -4.25451414 -1.41817138 0 0 Z " fill="#D8E6C0" transform="translate(62,71)"/>
<path d="M0 0 C0 0.66 0 1.32 0 2 C-0.515625 2.391875 -1.03125 2.78375 -1.5625 3.1875 C-3.37753578 5.06456101 -3.37753578 5.06456101 -2.8125 8.4375 C-2.13988594 11.38665394 -1.39643127 13.38528301 0 16 C0.47050781 15.566875 0.94101562 15.13375 1.42578125 14.6875 C2.04839844 14.130625 2.67101563 13.57375 3.3125 13 C3.92738281 12.443125 4.54226562 11.88625 5.17578125 11.3125 C7 10 7 10 10 10 C9.48308594 10.45890625 8.96617188 10.9178125 8.43359375 11.390625 C7.44552734 12.31101562 7.44552734 12.31101562 6.4375 13.25 C5.77621094 13.85328125 5.11492188 14.4565625 4.43359375 15.078125 C3.96050781 15.71234375 3.48742188 16.3465625 3 17 C3.25017019 19.08413644 3.25017019 19.08413644 4 21 C3.66666667 22.66666667 3.33333333 24.33333333 3 26 C3.36856864 28.23167185 3.36856864 28.23167185 4 30 C3.01 30.33 2.02 30.66 1 31 C0.83211627 29.37512529 0.66573213 27.75009558 0.5 26.125 C0.4071875 25.22007813 0.314375 24.31515625 0.21875 23.3828125 C0 21 0 21 0 19 C-0.598125 18.95875 -1.19625 18.9175 -1.8125 18.875 C-4 18 -4 18 -5.8125 15.5 C-7.29310285 11.13611792 -7.33278265 7.42854995 -6 3 C-3.92554124 0.31505766 -3.51436497 0 0 0 Z " fill="#4F5E56" transform="translate(40,34)"/>
<path d="M0 0 C0 0.66 0 1.32 0 2 C0.66 2 1.32 2 2 2 C2 3.98 2 5.96 2 8 C1.01 8.33 0.02 8.66 -1 9 C-1.33 7.02 -1.66 5.04 -2 3 C-4.78388975 4.70625501 -5.85384206 5.47626739 -6.75 8.6875 C-6.8325 9.450625 -6.915 10.21375 -7 11 C-5.02 11.66 -3.04 12.32 -1 13 C-3.57213134 14.61949011 -4.67669159 15.04408751 -7.75 14.625 C-8.86375 14.315625 -8.86375 14.315625 -10 14 C-10.4560284 8.29964499 -9.60412752 5.45215753 -6 1 C-4 0 -4 0 0 0 Z " fill="#343633" transform="translate(67,55)"/>
<path d="M0 0 C2 0.9375 2 0.9375 4 3 C4.36475845 6.02534949 4.22893297 8.96663814 4 12 C2.68 12 1.36 12 0 12 C-1.25664978 9.09399739 -2 7.20395416 -2 4 C-1.34 4 -0.68 4 0 4 C0 2.68 0 1.36 0 0 Z " fill="#B1D37E" transform="translate(64,80)"/>
<path d="M0 0 C3.22465619 2.57792849 3.7356836 5.09850594 4.5625 9.0625 C4.92988281 10.79693359 4.92988281 10.79693359 5.3046875 12.56640625 C5.53414062 13.69949219 5.76359375 14.83257812 6 16 C6.20882812 16.95777344 6.41765625 17.91554688 6.6328125 18.90234375 C7.5149577 23.03351667 8.09705746 26.75933547 8 31 C6.25121236 27.88677365 5.51529055 25.0917433 4.9296875 21.578125 C4.75566406 20.55332031 4.58164063 19.52851562 4.40234375 18.47265625 C4.14130859 16.87744141 4.14130859 16.87744141 3.875 15.25 C3.69324219 14.17105469 3.51148437 13.09210937 3.32421875 11.98046875 C2.87708755 9.32121479 2.43590482 6.66111325 2 4 C1.34 4 0.68 4 0 4 C-0.33 4.99 -0.66 5.98 -1 7 C-1.66 7 -2.32 7 -3 7 C-1.125 1.125 -1.125 1.125 0 0 Z " fill="#3E4E38" transform="translate(62,26)"/>
<path d="M0 0 C1.32 0 2.64 0 4 0 C4 0.66 4 1.32 4 2 C4.721875 1.9175 5.44375 1.835 6.1875 1.75 C9.85378389 2.0758919 11.29851237 3.59056508 14 6 C14.66 6.33 15.32 6.66 16 7 C16 7.66 16 8.32 16 9 C10.3413064 8.56471588 5.5534845 6.31685398 1 3 C0.67 2.01 0.34 1.02 0 0 Z " fill="#E5F3CA" transform="translate(32,64)"/>
<path d="M0 0 C0 2.97 0 5.94 0 9 C-1.65 9.66 -3.3 10.32 -5 11 C-6.1875 9.3125 -6.1875 9.3125 -7 7 C-5.68929989 4.10266292 -3.77124647 0 0 0 Z " fill="#7FA9C3" transform="translate(66,57)"/>
<path d="M0 0 C0 0.66 0 1.32 0 2 C-1.2065625 2.4640625 -1.2065625 2.4640625 -2.4375 2.9375 C-4.89080405 3.76335345 -4.89080405 3.76335345 -6 5 C-7.51928038 5.07179964 -9.04167482 5.08392007 -10.5625 5.0625 C-11.38878906 5.05347656 -12.21507812 5.04445313 -13.06640625 5.03515625 C-13.70449219 5.02355469 -14.34257813 5.01195313 -15 5 C-15 4.34 -15 3.68 -15 3 C-9.8531808 -0.16727335 -5.841744 -0.35050464 0 0 Z " fill="#EEFAD2" transform="translate(75,68)"/>
<path d="M0 0 C0.66 0 1.32 0 2 0 C2.29003091 5.60726423 2.13444318 9.1241995 -1 14 C-1.99 14.66 -2.98 15.32 -4 16 C-5 14 -5 14 -4.00390625 10.7421875 C-3.53110016 9.4502948 -3.05028031 8.16131362 -2.5625 6.875 C-2.31951172 6.21628906 -2.07652344 5.55757812 -1.82617188 4.87890625 C-1.22421679 3.25008662 -0.61297588 1.62470425 0 0 Z " fill="#848C75" transform="translate(59,42)"/>
<path d="M0 0 C-0.66 0 -1.32 0 -2 0 C-2.66 1.65 -3.32 3.3 -4 5 C-5.98 5 -7.96 5 -10 5 C-10.33 4.01 -10.66 3.02 -11 2 C-7.75267347 -1.24732653 -4.25451414 -1.41817138 0 0 Z " fill="#A8B4A0" transform="translate(62,71)"/>
<path d="M0 0 C0.66 0 1.32 0 2 0 C2.96070434 2.88211302 3.10581883 4.69850044 3.0625 7.6875 C3.05347656 8.49574219 3.04445313 9.30398437 3.03515625 10.13671875 C3.02355469 10.75160156 3.01195312 11.36648437 3 12 C3.99 11.67 4.98 11.34 6 11 C6 12.32 6 13.64 6 15 C3.36 14.34 0.72 13.68 -2 13 C-2 12.34 -2 11.68 -2 11 C-3.32 10.67 -4.64 10.34 -6 10 C-4.35 9.67 -2.7 9.34 -1 9 C-1 9.99 -1 10.98 -1 12 C-0.01 12 0.98 12 2 12 C1.34 8.04 0.68 4.08 0 0 Z " fill="#1A272B" transform="translate(38,53)"/>
<path d="M0 0 C0.99 0.33 1.98 0.66 3 1 C3 3.31 3 5.62 3 8 C0.29120665 9.35439668 -2.00933268 9.06501451 -5 9 C-4.360625 8.443125 -3.72125 7.88625 -3.0625 7.3125 C-0.80319013 4.77933439 -0.36850953 3.31658576 0 0 Z " fill="#9CBA72" transform="translate(60,74)"/>
<path d="M0 0 C1.98 0.99 1.98 0.99 4 2 C3.814375 2.9075 3.62875 3.815 3.4375 4.75 C3.04265379 7.68314324 3.05308428 9.2644657 4 12 C3.01 12.33 2.02 12.66 1 13 C0.83147753 11.39602723 0.66525114 9.7918131 0.5 8.1875 C0.4071875 7.29417969 0.314375 6.40085937 0.21875 5.48046875 C0 3 0 3 0 0 Z " fill="#5C6867" transform="translate(40,52)"/>
<path d="M0 0 C0 0.66 0 1.32 0 2 C0.66 2 1.32 2 2 2 C2 3.98 2 5.96 2 8 C1.01 8.33 0.02 8.66 -1 9 C-1.33 7.02 -1.66 5.04 -2 3 C-3.65 3 -5.3 3 -7 3 C-4.49955934 -0.00052879 -4.2621484 0 0 0 Z " fill="#40423B" transform="translate(67,55)"/>
<path d="M0 0 C0 0.66 0 1.32 0 2 C-0.50144531 2.43957031 -1.00289062 2.87914062 -1.51953125 3.33203125 C-3.23817276 4.91056775 -3.23817276 4.91056775 -3.07421875 7.26171875 C-2.94660156 8.06222656 -2.81898437 8.86273438 -2.6875 9.6875 C-2.56761719 10.49574219 -2.44773438 11.30398437 -2.32421875 12.13671875 C-2.21722656 12.75160156 -2.11023437 13.36648437 -2 14 C-4 13 -4 13 -4.73828125 10.8203125 C-4.92777344 9.93085937 -5.11726563 9.04140625 -5.3125 8.125 C-5.51488281 7.24070312 -5.71726563 6.35640625 -5.92578125 5.4453125 C-6 3 -6 3 -4.73046875 1.1796875 C-3 0 -3 0 0 0 Z " fill="#314242" transform="translate(40,34)"/>
<path d="M0 0 C0.66 0 1.32 0 2 0 C2.53229326 1.26607607 3.05044544 2.53810412 3.5625 3.8125 C3.85253906 4.52019531 4.14257812 5.22789063 4.44140625 5.95703125 C5 8 5 8 4 11 C1 9 1 9 0.48828125 6.8359375 C0.43027344 6.02382813 0.37226562 5.21171875 0.3125 4.375 C0.24675781 3.55773438 0.18101563 2.74046875 0.11328125 1.8984375 C0.07589844 1.27195313 0.03851563 0.64546875 0 0 Z " fill="#667365" transform="translate(33,40)"/>
<path d="M0 0 C1.32 0 2.64 0 4 0 C4 0.66 4 1.32 4 2 C4.66 2 5.32 2 6 2 C6.33 2.99 6.66 3.98 7 5 C4.0625 4.1875 4.0625 4.1875 1 3 C0.67 2.01 0.34 1.02 0 0 Z " fill="#DFECC5" transform="translate(32,64)"/>
</svg>
